HIERARCHY
ROOT Hips
{
	OFFSET 0.00000 0.00000 0.00000
	CHANNELS 6 Xposition Yposition Zposition Yrotation Zrotation Xrotation 
	JOINT Lumbar
	{
		OFFSET 0 0 0
		CHANNELS 3 Zrotation Xrotation Yrotation
		JOINT Neck
		{
			OFFSET 0.00 0.2701 0.00
			CHANNELS 3 Zrotation Xrotation Yrotation
			End Site
			{
				OFFSET 0.00 0.1379 0.00
			}
		}
		JOINT RightShoulder
		{
			OFFSET 0.0119 0.2289 0.1181
			CHANNELS 3 Zrotation Xrotation Yrotation
			JOINT RightElbow
			{
				OFFSET 0.00 -0.1475 0.00
				CHANNELS 2 Zrotation Yrotation
				JOINT RightWrist
				{
					OFFSET 0.00 -0.1605 0.00
					CHANNELS 2 Zrotation Xrotation
					End Site
					{
						OFFSET 0.0040 -0.1068 0.0006
					}
				}
			}
		}
		JOINT LeftShoulder
		{
			OFFSET 0.0119 0.2289 -0.1181
			CHANNELS 3 Zrotation Xrotation Yrotation
			JOINT LeftElbow
			{
				OFFSET 0.00 -0.1475 0.00
				CHANNELS 2 Zrotation Yrotation
				JOINT LeftWrist
				{
					OFFSET 0.00 -0.1605 0.00
					CHANNELS 2 Zrotation Xrotation
					End Site
					{
						OFFSET 0.0040 -0.1068 -0.0006
					}
				}
			}
		}
	}
	JOINT RightHip
	{
		OFFSET 0.0316 -0.0424 0.0458
		CHANNELS 3 Zrotation Xrotation Yrotation
		JOINT RightKnee
		{
			OFFSET 0.00 -0.2438 0.00
			CHANNELS 1 Zrotation
			JOINT RightAnkle
			{
				OFFSET 0.00 -0.2449 0.00
				CHANNELS 3 Zrotation Xrotation Yrotation
				End Site
				{
					OFFSET 0.1237 -0.0542 0.0051
				}
			}
		}
	}
	JOINT LeftHip
	{
		OFFSET 0.0316 -0.0424 -0.0458
		CHANNELS 3 Zrotation Xrotation Yrotation
		JOINT LeftKnee
		{
			OFFSET 0.00 -0.2438 0.00
			CHANNELS 1 Zrotation
			JOINT LeftAnkle
			{
				OFFSET 0.00 -0.2449 0.00
				CHANNELS 3 Zrotation Xrotation Yrotation
				End Site
				{
					OFFSET 0.1237 -0.0542 -0.0051
				}
			}
		}
	}
}
MOTION
Frames: 14
Frame Time: 0.02
0.04074 0.57359 0.00638 179.43718 0 -4.14985 -3.37211 3.82823 1.4165 -27.1666 -0.15498 2.23347 46.668 -51.84925 8.20341 51.60899 71.05503 -5.3736 2.75152 33.93349 44.74329 -0.37886 50.31216 -68.05513 -15.71608 0.51729 -3.68178 9.29657 1.1935 -6.66249 -0.1651 -10.93743 -6.26493 15.84187 6.05322 -1.34122 -33.92876 9.45721 0.50509 -2.41331
0.03988 0.57369 0.00637 179.32035 0 -4.08455 -3.52955 3.61394 1.60192 -27.37879 -0.43738 2.13512 49.0024 -52.61446 8.91857 51.7577 70.15076 -5.55387 3.03938 35.41762 45.62266 -1.20237 50.09967 -67.27713 -15.54334 0.28783 -3.74857 9.22179 1.32524 -6.67492 -0.02289 -9.9387 -6.25513 16.44622 6.25796 -1.74762 -33.97475 9.18567 0.6801 -2.20083
0.03873 0.57393 0.00664 179.16061 0 -3.96695 -3.66765 3.32838 1.80078 -27.64304 -0.71736 2.04948 51.69135 -53.32739 9.878 52.12787 69.15736 -5.79004 3.30605 37.1475 46.47546 -2.17817 50.12327 -66.47409 -15.5024 0.06511 -3.77561 9.07525 1.47637 -6.80288 0.22529 -8.28146 -6.25979 16.80111 6.43525 -2.09824 -33.27331 8.75475 0.97629 -1.82766
0.03769 0.5741 0.00681 179.02567 0 -3.87773 -3.8155 3.07823 1.99098 -27.87684 -0.99631 1.95308 54.22297 -54.0543 10.74172 52.41445 68.20596 -5.99982 3.57811 38.76424 47.33933 -3.09428 50.06628 -65.6834 -15.4012 -0.15924 -3.82666 8.96396 1.61432 -6.87347 0.42035 -6.98136 -6.25863 17.25551 6.62841 -2.49058 -32.87296 8.39589 1.20704 -1.54191
0.03677 0.57431 0.00688 178.86911 0 -3.76935 -3.95881 2.81515 2.19209 -28.14196 -1.28308 1.87884 56.75371 -54.82913 11.54769 52.64341 67.24565 -6.21184 3.87052 40.39527 48.21008 -3.97453 49.91046 -64.8832 -15.29966 -0.39111 -3.8534 8.84205 1.77238 -6.96332 0.63399 -5.44989 -6.25696 17.77131 6.80882 -2.8196 -32.63188 8.03549 1.47947 -1.19835
0.03552 0.57446 0.00722 178.74658 0 -3.68853 -4.1071 2.56199 2.37358 -28.35289 -1.55328 1.7616 59.36409 -55.48813 12.531 53.04037 66.28424 -6.43283 4.11471 42.05205 49.05732 -4.96516 50.0132 -64.10032 -15.23058 -0.60499 -3.92106 8.72476 1.89276 -7.04166 0.83543 -4.2375 -6.25866 18.09795 7.00781 -3.26261 -31.88724 7.64127 1.69465 -0.93646
0.03346 0.57438 0.00818 178.73518 0 -3.69394 -4.27513 2.35515 2.49813 -28.40475 -1.78019 1.51535 62.11374 -55.85251 13.92323 53.83619 65.33675 -6.66939 4.2289 43.71632 49.86836 -6.20953 50.74803 -63.35463 -15.22244 -0.77261 -4.11074 8.64079 1.90092 -7.05233 0.97182 -4.08573 -6.26765 17.97454 7.27468 -4.06368 -29.88257 7.19738 1.72268 -0.93197
0.03106 0.57424 0.00942 178.7583 0 -3.72914 -4.44884 2.16027 2.60235 -28.39906 -1.99029 1.22648 64.92722 -56.09885 15.48777 54.79348 64.39342 -6.91227 4.2952 45.39739 50.65192 -7.56186 51.73706 -62.63099 -15.24216 -0.92179 -4.34275 8.56314 1.87067 -7.04941 1.09351 -4.27284 -6.27895 17.66716 7.55884 -4.97516 -27.40733 6.72473 1.68929 -1.01562
0.02879 0.57412 0.01056 178.76121 0 -3.75261 -4.61901 1.95931 2.71553 -28.41754 -2.2071 0.96151 67.70652 -56.39053 16.98647 55.68153 63.45037 -7.14998 4.38448 47.07193 51.43409 -8.8725 52.62329 -61.90875 -15.24699 -1.07812 -4.55601 8.48094 1.86025 -7.05717 1.22578 -4.29103 -6.28773 17.43614 7.82909 -5.81656 -25.18067 6.2625 1.68375 -1.0639
0.02665 0.57402 0.01158 178.78156 0 -3.76738 -4.79194 1.75959 2.83042 -28.44733 -2.42793 0.6778 70.52389 -56.71629 18.44292 56.5593 62.49087 -7.40043 4.46829 48.75085 52.27608 -10.1559 53.46459 -61.13711 -15.26538 -1.23962 -4.76682 8.40432 1.84134 -7.04795 1.34537 -4.3491 -6.30297 17.22634 8.1257 -6.74116 -22.77804 5.80524 1.68199 -1.08883
0.02415 0.57388 0.01293 178.77455 0 -3.80708 -4.96151 1.55978 2.93667 -28.43788 -2.63618 0.42295 73.26795 -56.94274 20.02293 57.49491 61.57298 -7.62372 4.55193 50.42099 52.98461 -11.5216 54.45639 -60.47423 -15.26096 -1.3858 -4.99205 8.31723 1.82969 -7.07186 1.48637 -4.41351 -6.3055 16.93278 8.36967 -7.51809 -20.64405 5.33365 1.65704 -1.18291
0.02075 0.5736 0.01511 178.68151 0 -3.91697 -5.11375 1.36834 3.02478 -28.34488 -2.81637 0.25721 75.82905 -56.93183 21.91851 58.5409 60.72461 -7.7826 4.65095 52.06488 53.35387 -13.07162 55.80241 -60.10392 -15.18165 -1.49617 -5.25723 8.21103 1.85605 -7.16907 1.69053 -4.41175 -6.2679 16.44591 8.48329 -7.87105 -19.33458 4.82458 1.57527 -1.4688
0.017 0.57328 0.01764 178.56015 0 -4.0497 -5.26386 1.17472 3.1048 -28.21199 -2.98419 0.12223 78.30499 -56.82379 23.92774 59.64057 59.92642 -7.91157 4.7508 53.69782 53.58536 -14.70354 57.28945 -59.84258 -15.07872 -1.59142 -5.5335 8.09231 1.88922 -7.30372 1.91591 -4.40793 -6.21759 15.88337 8.54011 -8.06951 -18.32108 4.30428 1.47308 -1.81809
0.01339 0.57299 0.02003 178.45347 0 -4.16637 -5.41923 0.97472 3.18785 -28.09021 -3.15582 -0.02635 80.79604 -56.75522 25.87338 60.72049 59.13514 -8.04581 4.84761 55.33297 53.86576 -16.30744 58.7105 -59.53345 -14.98927 -1.69227 -5.79826 7.97226 1.9137 -7.43451 2.13105 -4.40904 -6.1767 15.3617 8.61021 -8.33231 -17.19766 3.79263 1.38485 -2.12414
